<svg width="40" height="40" viewBox="0 0 40 40" fill="none" xmlns="http://www.w3.org/2000/svg">
<path d="M36.875 0H3.125C1.40188 0 0 1.40187 0 3.125V27.6627C0 29.3859 1.40188 30.7877 3.125 30.7877H15.3906V34.7094C13.0991 34.9327 11.3021 36.8695 11.3021 39.2187C11.3021 39.6502 11.6519 39.9999 12.0834 39.9999H27.9167C28.3482 39.9999 28.698 39.6502 28.698 39.2187C28.698 36.8164 26.8187 34.8459 24.4532 34.6974V30.7877H28.0991C28.5305 30.7877 28.8803 30.438 28.8803 30.0065C28.8803 29.575 28.5305 29.2252 28.0991 29.2252H3.125C2.26344 29.2252 1.5625 28.5243 1.5625 27.6627V3.125C1.5625 2.26344 2.26344 1.5625 3.125 1.5625H36.875C37.7366 1.5625 38.4375 2.26344 38.4375 3.125V27.6627C38.4375 28.5243 37.7366 29.2252 36.875 29.2252H33.9584C33.5269 29.2252 33.1771 29.575 33.1771 30.0065C33.1771 30.438 33.5269 30.7877 33.9584 30.7877H36.875C38.5981 30.7877 40 29.3859 40 27.6627V3.125C40 1.4018 38.5981 0 36.875 0ZM16.9531 30.7877H22.8906V34.6875H16.9531V30.7877ZM24.1666 36.25C25.5334 36.25 26.6873 37.1783 27.0312 38.4375H12.9688C13.3126 37.1783 14.4666 36.25 15.8333 36.25H24.1666Z" fill="#0274DC"/>
<path d="M31.8023 29.4529C31.657 29.3076 31.4555 29.224 31.25 29.224C31.0445 29.224 30.843 29.3076 30.6977 29.4529C30.5523 29.5982 30.4688 29.7998 30.4688 30.0052C30.4688 30.2107 30.5523 30.4123 30.6977 30.5576C30.843 30.7037 31.0445 30.7865 31.25 30.7865C31.4555 30.7865 31.657 30.7037 31.8023 30.5576C31.9477 30.4123 32.0312 30.2107 32.0312 30.0052C32.0312 29.7998 31.9477 29.5983 31.8023 29.4529Z" fill="#0274DC"/>
<path d="M11.4218 14.3203L15.2496 10.4926C15.5548 10.1875 15.5548 9.69282 15.2497 9.38774C14.9446 9.08267 14.4499 9.08267 14.1448 9.38774L9.76464 13.7679C9.45956 14.073 9.45956 14.5677 9.76464 14.8728L14.1448 19.253C14.2974 19.4056 14.4973 19.4818 14.6972 19.4818C14.8971 19.4818 15.0971 19.4056 15.2496 19.253C15.5547 18.9479 15.5547 18.4532 15.2496 18.1481L11.4218 14.3203Z" fill="#0274DC"/>
<path d="M30.2356 13.7679L25.8555 9.38774C25.5504 9.08267 25.0558 9.08267 24.7506 9.38774C24.4455 9.69282 24.4455 10.1875 24.7506 10.4927L28.5784 14.3204L24.7506 18.1481C24.4456 18.4532 24.4456 18.9479 24.7507 19.253C24.9033 19.4056 25.1032 19.4818 25.3031 19.4818C25.503 19.4818 25.703 19.4056 25.8555 19.253L30.2356 14.8728C30.5407 14.5677 30.5407 14.0731 30.2356 13.7679Z" fill="#0274DC"/>
<path d="M21.3716 9.49356C20.9549 9.38168 20.5264 9.62926 20.4147 10.046L18.0758 18.775C17.9642 19.1918 18.2115 19.6201 18.6282 19.7318C18.696 19.75 18.764 19.7586 18.831 19.7586C19.1759 19.7586 19.4916 19.5284 19.5851 19.1794L21.924 10.4504C22.0357 10.0336 21.7884 9.60527 21.3716 9.49356Z" fill="#0274DC"/>
<path d="M36.0938 3.13062H23.6719C23.2404 3.13062 22.8906 3.48038 22.8906 3.91187C22.8906 4.34335 23.2404 4.69312 23.6719 4.69312H35.3125V24.2244H4.6875V4.69312H16.6797C17.1112 4.69312 17.4609 4.34335 17.4609 3.91187C17.4609 3.48038 17.1112 3.13062 16.6797 3.13062H3.90625C3.47477 3.13062 3.125 3.48038 3.125 3.91187V25.0056C3.125 25.4371 3.47477 25.7869 3.90625 25.7869H36.0938C36.5252 25.7869 36.875 25.4371 36.875 25.0056V3.91187C36.875 3.48038 36.5252 3.13062 36.0938 3.13062Z" fill="#0274DC"/>
<path d="M20.4742 26.953C20.3289 26.8077 20.1273 26.7241 19.9219 26.7241C19.7164 26.7241 19.5148 26.8077 19.3695 26.953C19.2242 27.0983 19.1406 27.2999 19.1406 27.5054C19.1406 27.7116 19.2242 27.9124 19.3695 28.0577C19.5148 28.2038 19.7164 28.2866 19.9219 28.2866C20.1273 28.2866 20.3289 28.2038 20.4742 28.0577C20.6195 27.9124 20.7031 27.7116 20.7031 27.5054C20.7031 27.2999 20.6195 27.0983 20.4742 26.953Z" fill="#0274DC"/>
<path d="M20.7086 3.35928C20.5633 3.21396 20.3617 3.13037 20.1562 3.13037C19.9508 3.13037 19.7492 3.21396 19.6039 3.35928C19.4586 3.50459 19.375 3.70615 19.375 3.91162C19.375 4.11709 19.4586 4.31865 19.6039 4.46475C19.7492 4.61006 19.9508 4.69287 20.1562 4.69287C20.3617 4.69287 20.5633 4.61006 20.7086 4.46475C20.8539 4.31865 20.9375 4.11787 20.9375 3.91162C20.9375 3.70615 20.8539 3.50459 20.7086 3.35928Z" fill="#0274DC"/>
</svg>
