<svg width="40" height="40" viewBox="0 0 40 40" fill="none" xmlns="http://www.w3.org/2000/svg">
<path d="M36.762 20.9688C36.6415 20.3411 36.0925 19.8871 35.4533 19.8868H34.166L34.0713 19.3194C33.9769 18.7496 33.5279 18.3044 32.9573 18.2148C32.8307 18.1948 32.7027 18.1814 32.5767 18.1641C32.795 17.1449 32.6136 16.0808 32.07 15.1914C32.3572 14.4464 32.3036 13.613 31.9233 12.9109C31.543 12.2088 30.8742 11.7086 30.0933 11.5421C29.5941 8.8701 27.2695 6.92782 24.5513 6.91145C24.4847 6.91145 24.4253 6.92011 24.362 6.92211C23.9277 6.24001 23.2116 5.78731 22.4091 5.6875C21.6067 5.58769 20.8015 5.85119 20.2133 6.40611C19.4724 5.92446 18.6078 5.66767 17.724 5.66678C16.3 5.67261 14.958 6.33354 14.0853 7.45878C13.1164 7.17622 12.0715 7.34971 11.2458 7.93025C10.4201 8.51079 9.90331 9.43535 9.84133 10.4428C8.82356 10.8706 8.16131 11.8667 8.16067 12.9708C8.16275 13.1622 8.1851 13.3528 8.22733 13.5394C7.32726 14.8963 7.09206 16.5885 7.588 18.1394C7.40933 18.1641 7.22667 18.1861 7.05466 18.2114C6.4811 18.298 6.02814 18.7434 5.932 19.3154L5.83733 19.8848H4.54667C3.90856 19.8852 3.36022 20.3377 3.23866 20.9641L0.319331 35.9521C0.205322 36.5391 0.359925 37.1463 0.740763 37.6073C1.1216 38.0683 1.68872 38.3347 2.28666 38.3335H16.1893C16.7413 39.2441 18.4187 39.6668 20 39.6668C21.5647 39.6668 23.226 39.2541 23.794 38.3335H37.7133C38.3111 38.3346 38.8781 38.0683 39.2589 37.6075C39.6397 37.1467 39.7944 36.5397 39.6807 35.9528L36.762 20.9688ZM10.1767 14.1774C9.63537 13.852 9.37704 13.2059 9.54472 12.597C9.7124 11.988 10.2651 11.5653 10.8967 11.5628C11.3387 11.5615 11.7547 11.7716 12.016 12.1281C12.158 12.3194 12.3912 12.4204 12.6278 12.3931C12.8644 12.3658 13.0684 12.2143 13.1631 11.9957C13.2578 11.7772 13.2286 11.5247 13.0867 11.3334C12.634 10.7284 11.9479 10.3414 11.196 10.2668C11.3948 9.33313 12.2181 8.66474 13.1727 8.66211C13.254 8.66624 13.335 8.67514 13.4153 8.68878C13.3617 8.82546 13.315 8.96474 13.2753 9.10611C13.1924 9.45901 13.4066 9.81353 13.7576 9.90418C14.1086 9.99484 14.4677 9.78839 14.566 9.43945C14.6418 9.14644 14.7583 8.86549 14.912 8.60478C15.5034 7.61407 16.5702 7.00527 17.724 7.00011C18.3519 7.00289 18.9655 7.18819 19.49 7.53345C19.3901 7.81418 19.3371 8.10948 19.3333 8.40745C19.3333 8.77564 19.6318 9.07411 20 9.07411C20.3682 9.07411 20.6667 8.77564 20.6667 8.40745C20.6667 7.63296 21.2945 7.00511 22.069 7.00511C22.8435 7.00511 23.4713 7.63296 23.4713 8.40745C23.4713 8.77564 23.7698 9.07411 24.138 9.07411C24.5062 9.07411 24.8047 8.77564 24.8047 8.40745C24.8047 8.35611 24.792 8.30745 24.7893 8.25611C26.6982 8.37389 28.3034 9.73079 28.7373 11.5934C28.4264 11.684 28.1342 11.8296 27.8747 12.0234C27.6841 12.1664 27.5843 12.4001 27.6128 12.6365C27.6413 12.873 27.7938 13.0763 28.0128 13.1699C28.2318 13.2634 28.4841 13.233 28.6747 13.0901C29.2074 12.6957 29.9433 12.7271 30.4405 13.1656C30.9376 13.604 31.0608 14.3303 30.736 14.9081C30.5909 15.1633 30.3703 15.3673 30.1047 15.4921C29.8261 15.627 29.677 15.9359 29.7447 16.238C29.8124 16.5401 30.0791 16.7558 30.3887 16.7588C30.4864 16.7589 30.583 16.7373 30.6713 16.6954C30.848 16.6098 31.015 16.5054 31.1693 16.3841C31.5139 17.3638 31.2978 18.4535 30.6053 19.2274L30.5893 19.2441C29.7208 20.185 28.3353 20.4392 27.1893 19.8681C27.0771 19.8088 26.9693 19.7415 26.8667 19.6668C27.3577 18.9784 27.4255 18.0741 27.0427 17.3201C26.9355 17.1073 26.7229 16.9678 26.485 16.9543C26.2471 16.9407 26.0201 17.055 25.8894 17.2543C25.7586 17.4535 25.7442 17.7073 25.8513 17.9201C26.0705 18.3607 25.9338 18.8955 25.53 19.1768C25.2929 19.3347 24.9999 19.3846 24.7239 19.3142C24.4478 19.2438 24.2145 19.0596 24.082 18.8074C23.9754 18.5944 23.7633 18.4544 23.5255 18.4402C23.2877 18.426 23.0603 18.5397 22.9291 18.7385C22.7979 18.9373 22.7827 19.1911 22.8893 19.4041C23.2803 20.1934 24.0859 20.6918 24.9667 20.6894C25.2534 20.6875 25.5372 20.6316 25.8033 20.5248C26.0414 20.7332 26.3038 20.9123 26.5847 21.0581C27.5348 21.5506 28.6397 21.6528 29.664 21.3428C29.0052 22.2423 28.0192 22.8469 26.9187 23.0261C26.5763 23.0819 26.3339 23.3908 26.3612 23.7366C26.3885 24.0824 26.6765 24.3495 27.0233 24.3508C27.0588 24.3508 27.0942 24.3481 27.1293 24.3428C27.5353 24.2725 27.932 24.1567 28.312 23.9974C28.5174 24.3606 28.6841 24.7442 28.8093 25.1421C28.8323 25.2116 28.844 25.2843 28.844 25.3574C28.8438 25.6456 28.6717 25.9058 28.4067 26.0188C28.1 26.1374 27.7519 26.0438 27.546 25.7874C27.0297 25.1812 26.3536 24.7319 25.5947 24.4908C24.154 24.0081 23.598 23.5768 23.362 23.1074C23.7079 23.0643 24.0497 22.9929 24.384 22.8941C24.6117 22.8241 24.7847 22.6379 24.8379 22.4057C24.8912 22.1735 24.8164 21.9306 24.6419 21.7684C24.4675 21.6062 24.2197 21.5494 23.992 21.6194C23.6179 21.7342 23.2318 21.8051 22.8413 21.8308C22.0891 21.8896 21.3334 21.7756 20.632 21.4974C20.3686 21.3947 20.0692 21.4693 19.8847 21.6834C18.914 22.7984 17.2528 22.9879 16.0559 22.1202C14.8591 21.2525 14.5227 19.6146 15.2807 18.3454C15.4034 18.1405 15.4076 17.8856 15.2915 17.6768C15.1754 17.468 14.9567 17.337 14.7178 17.3331C14.4789 17.3293 14.2561 17.4532 14.1333 17.6581C13.9743 17.9288 13.8464 18.2167 13.752 18.5161C13.227 18.4885 12.8131 18.0591 12.8047 17.5334V17.5168C12.8043 17.3409 12.7337 17.1724 12.6085 17.0488C12.4833 16.9252 12.3139 16.8568 12.138 16.8588C11.7682 16.8624 11.4706 17.1636 11.4713 17.5334C11.4743 18.7158 12.3659 19.7067 13.5413 19.8341C13.5437 20.0576 13.564 20.2805 13.602 20.5008C12.1135 20.8229 10.5696 20.2878 9.59959 19.1137C8.62959 17.9396 8.39548 16.3225 8.99267 14.9214C9.14181 15.0723 9.30831 15.205 9.48866 15.3168C9.8036 15.5013 10.2083 15.3982 10.3967 15.0856C10.585 14.7729 10.487 14.367 10.1767 14.1748V14.1774ZM7.24333 19.5328C7.55066 19.4874 7.868 19.4474 8.18333 19.4061C9.41595 21.3759 11.7734 22.3323 14.03 21.7781C14.6363 22.9289 15.7443 23.7314 17.0267 23.9488C18.3092 24.1661 19.6197 23.7735 20.5713 22.8868C21.0244 23.0219 21.491 23.1064 21.9627 23.1388C22.2847 24.3601 23.2153 25.1001 25.1707 25.7554C25.6978 25.9207 26.168 26.2304 26.528 26.6494C26.9282 27.1253 27.5169 27.4019 28.1387 27.4061C28.4106 27.406 28.6797 27.3512 28.93 27.2448C29.6857 26.9218 30.1759 26.1793 30.176 25.3574C30.1766 25.1431 30.1424 24.9301 30.0747 24.7268C29.9247 24.2557 29.7273 23.8012 29.4853 23.3701C30.619 22.5552 31.4087 21.3474 31.7007 19.9821C31.8426 19.8134 31.9711 19.6337 32.0847 19.4448C32.308 19.4734 32.5313 19.4988 32.756 19.5361L35.1627 34.0121C30.4583 32.4413 25.371 32.4413 20.6667 34.0121V25.6668C20.6667 25.2986 20.3682 25.0001 20 25.0001C19.6318 25.0001 19.3333 25.2986 19.3333 25.6668V34.0148C14.6295 32.4425 9.54229 32.4406 4.83733 34.0095L7.24333 19.5328ZM1.76733 36.7548C1.64136 36.6026 1.59001 36.4021 1.62733 36.2081L4.54667 21.2201H5.61333L3.52133 33.7928C3.44775 34.2504 3.61625 34.7135 3.96671 35.0169C4.31717 35.3202 4.79965 35.4206 5.242 35.2821C8.796 34.1307 12.5823 33.8904 16.2533 34.5835L16.0547 37.0001H2.28666C2.08554 37.0003 1.89495 36.9102 1.76733 36.7548ZM20 38.3335C18.394 38.3335 17.4727 37.8588 17.3373 37.6475L17.5667 34.8808C18.2997 35.0633 19.0171 35.3038 19.712 35.6001C19.8019 35.6434 19.9002 35.6662 20 35.6668C20.1 35.6666 20.1987 35.6438 20.2887 35.6001C20.9832 35.3021 21.7003 35.06 22.4333 34.8761L22.6627 37.6468C22.5273 37.8588 21.606 38.3335 20 38.3335ZM38.2327 36.7548C38.105 36.9102 37.9145 37.0003 37.7133 37.0001H23.9473L23.7473 34.5788C27.4204 33.8872 31.2083 34.1295 34.7633 35.2835C35.2056 35.4201 35.687 35.3183 36.0361 35.0144C36.3852 34.7105 36.5524 34.2476 36.478 33.7908L34.388 21.2208H35.4547L38.3747 36.2075C38.4116 36.402 38.3595 36.6028 38.2327 36.7548Z" fill="#0274DC"/>
<path d="M17.7906 15.4567C17.5177 15.7036 17.4966 16.125 17.7433 16.398C18.3088 17.0224 19.0563 17.4534 19.88 17.63C19.5069 18.1557 18.9019 18.4677 18.2573 18.4667C17.8891 18.4667 17.5906 18.7652 17.5906 19.1334C17.5906 19.5015 17.8891 19.8 18.2573 19.8C19.6374 19.8055 20.8757 18.9531 21.3633 17.662C23.021 17.3873 24.3334 16.1113 24.6546 14.462C24.7043 14.2261 24.6227 13.9818 24.4413 13.823C24.2598 13.6643 24.0068 13.6159 23.7796 13.6964C23.5524 13.7769 23.3863 13.9738 23.3453 14.2114C23.2146 14.899 22.8179 15.5072 22.2413 15.904C21.1321 16.6511 19.6446 16.4815 18.732 15.504C18.4851 15.2311 18.0637 15.2099 17.7906 15.4567Z" fill="#0274DC"/>
<path d="M15.4667 14.7333C15.8348 14.7333 16.1333 14.4349 16.1333 14.0667C16.1333 13.607 16.3159 13.1661 16.641 12.841C16.9661 12.516 17.4069 12.3333 17.8667 12.3333C18.2348 12.3333 18.5333 12.0349 18.5333 11.6667C18.5333 11.2985 18.2348 11 17.8667 11C16.1737 11.0018 14.8018 12.3738 14.8 14.0667C14.8 14.2435 14.8702 14.413 14.9952 14.5381C15.1203 14.6631 15.2898 14.7333 15.4667 14.7333Z" fill="#0274DC"/>
<path d="M20.6666 1.66671V1.00004C20.6666 0.631851 20.3682 0.333374 20 0.333374C19.6318 0.333374 19.3333 0.631851 19.3333 1.00004V1.66671C19.3333 2.0349 19.6318 2.33337 20 2.33337C20.3682 2.33337 20.6666 2.0349 20.6666 1.66671Z" fill="#0274DC"/>
<path d="M30.94 5.11736L30.2733 5.78403C30.1 5.95141 30.0305 6.19928 30.0915 6.43236C30.1525 6.66545 30.3346 6.84748 30.5677 6.90849C30.8008 6.9695 31.0486 6.9 31.216 6.72669L31.8827 6.06003C32.056 5.89264 32.1255 5.64477 32.0645 5.41169C32.0035 5.1786 31.8214 4.99657 31.5883 4.93556C31.3553 4.87455 31.1074 4.94406 30.94 5.11736Z" fill="#0274DC"/>
<path d="M9.25533 6.92203C9.52493 6.92197 9.76795 6.75954 9.87111 6.51046C9.97428 6.26138 9.91727 5.97469 9.72666 5.78403L9.06 5.11736C8.89261 4.94406 8.64474 4.87455 8.41166 4.93556C8.17857 4.99657 7.99654 5.1786 7.93553 5.41169C7.87452 5.64477 7.94403 5.89264 8.11733 6.06003L8.784 6.72669C8.90899 6.85172 9.07853 6.92199 9.25533 6.92203Z" fill="#0274DC"/>
<path d="M14.3873 4.11665C14.4749 4.11647 14.5616 4.09926 14.6427 4.06599C14.8061 3.9983 14.9359 3.86846 15.0035 3.70504C15.0712 3.54162 15.0711 3.35802 15.0033 3.19465L14.2373 1.34665C14.1496 1.12157 13.9469 0.961571 13.7076 0.928433C13.4683 0.895296 13.2298 0.994209 13.0842 1.18698C12.9386 1.37975 12.9087 1.6362 13.006 1.85732L13.7713 3.70532C13.8746 3.95438 14.1177 4.11672 14.3873 4.11665Z" fill="#0274DC"/>
<path d="M26.6333 0.985988C26.2933 0.845323 25.9036 1.00675 25.7627 1.34665L24.9967 3.19466C24.9287 3.3581 24.9285 3.54187 24.9962 3.70545C25.0638 3.86902 25.1938 3.99898 25.3573 4.06666C25.4384 4.09993 25.5251 4.11713 25.6127 4.11732C25.8823 4.11739 26.1254 3.95505 26.2287 3.70599L26.994 1.85799C27.062 1.69454 27.0622 1.51077 26.9945 1.3472C26.9268 1.18362 26.7969 1.05367 26.6333 0.985988Z" fill="#0274DC"/>
<path d="M33.55 12.0547C33.6376 12.0545 33.7244 12.0371 33.8053 12.0034L35.6527 11.238C35.8727 11.1469 36.0275 10.9453 36.0586 10.7092C36.0898 10.473 35.9926 10.2382 35.8036 10.0932C35.6147 9.94815 35.3627 9.91492 35.1427 10.006L33.2947 10.7714C32.9998 10.8925 32.8319 11.2054 32.8941 11.5181C32.9563 11.8308 33.2312 12.0557 33.55 12.0547Z" fill="#0274DC"/>
<path d="M6.19466 12.0034C6.53487 12.1444 6.92498 11.9829 7.066 11.6427C7.20701 11.3025 7.04554 10.9124 6.70533 10.7714L4.85733 10.0061C4.51712 9.86524 4.12716 10.0269 3.98632 10.3671C3.84549 10.7073 4.00712 11.0972 4.34732 11.2381L6.19466 12.0034Z" fill="#0274DC"/>
</svg>
