<svg width="40" height="40" viewBox="0 0 40 40" fill="none" xmlns="http://www.w3.org/2000/svg">
<g clip-path="url(#clip0)">
<path d="M16.6755 2.67444C8.94641 2.67444 2.68079 8.94006 2.68079 16.6691C2.68079 24.3982 8.94641 30.6638 16.6755 30.6638C24.4045 30.6638 30.6702 24.3982 30.6702 16.6691C30.6618 8.94356 24.401 2.68285 16.6755 2.67444ZM16.6755 4.00727C20.7919 4.01052 24.6494 6.01675 27.0156 9.38523L25.3495 11.0513C24.9441 10.8059 24.4799 10.6747 24.006 10.6714C22.5338 10.6714 21.3404 11.8649 21.3404 13.3371C21.3427 13.8115 21.4732 14.2764 21.7182 14.6826L17.3546 19.0462C16.5283 18.5424 15.4898 18.5424 14.6636 19.0462L11.6327 16.0154C11.8777 15.6092 12.0082 15.1443 12.0106 14.6699C12.0124 13.2006 10.8229 12.0081 9.35359 12.0062C8.13847 12.0047 7.07679 12.8267 6.7739 14.0035H4.3015C5.56328 8.17677 10.7137 4.01601 16.6755 4.00727ZM25.3389 13.3371C25.3389 14.0732 24.7422 14.6699 24.006 14.6699C23.2699 14.6699 22.6732 14.0732 22.6732 13.3371C22.6732 12.6009 23.2699 12.0042 24.006 12.0042C24.7422 12.0042 25.3389 12.6009 25.3389 13.3371ZM17.3419 21.334C17.3419 22.0702 16.7452 22.6669 16.0091 22.6669C15.2729 22.6669 14.6762 22.0702 14.6762 21.334C14.6762 20.5979 15.2729 20.0012 16.0091 20.0012C16.7452 20.0012 17.3419 20.5979 17.3419 21.334ZM10.6778 14.6699C10.6778 15.406 10.0811 16.0027 9.34493 16.0027C8.60879 16.0027 8.0121 15.406 8.0121 14.6699C8.0121 13.9338 8.60879 13.3371 9.34493 13.3371C10.0811 13.3371 10.6778 13.9338 10.6778 14.6699ZM22.8276 27.7404C20.9457 28.7854 18.8282 29.3328 16.6755 29.3309C9.6873 29.3357 4.01836 23.6746 4.01361 16.6864C4.01328 16.2354 4.03711 15.7846 4.08492 15.3362H6.7739C7.07687 16.5095 8.13314 17.3309 9.34493 17.3355C9.81933 17.3331 10.2842 17.2026 10.6904 16.9576L13.7213 19.9885C13.4763 20.3946 13.3457 20.8595 13.3434 21.3339C13.3434 22.8061 14.5369 23.9996 16.0091 23.9996C17.4813 23.9996 18.6747 22.8061 18.6747 21.3339C18.6724 20.8595 18.5419 20.3946 18.2969 19.9885L22.6605 15.6248C23.0667 15.8698 23.5316 16.0003 24.006 16.0026C25.4782 16.0026 26.6717 14.8092 26.6717 13.337C26.6694 12.8626 26.5388 12.3977 26.2938 11.9915L27.7466 10.5394C31.1382 16.6477 28.9359 24.3489 22.8276 27.7404Z" fill="#0274DC"/>
<path d="M33.3362 6.67299C34.548 6.66841 35.6043 5.84714 35.9072 4.67375H40.0003V3.34092H35.9072C35.6043 2.16754 34.548 1.34626 33.3362 1.34168C31.864 1.34168 30.6705 2.53515 30.6705 4.00734C30.6729 4.48174 30.8034 4.94665 31.0484 5.35283L29.8775 6.52372C24.2751 -0.775265 13.8164 -2.15058 6.51737 3.45188C-0.781613 9.05434 -2.15692 19.5131 3.44553 26.8121C8.73386 33.7017 18.4278 35.373 25.7178 30.6519L27.729 32.6631L28.6713 33.6055L34.0359 38.9701C35.4003 40.3345 37.6123 40.3345 38.9767 38.9701C40.3411 37.6057 40.3411 35.3937 38.9767 34.0293L33.6121 28.6647L32.6698 27.7223L30.6585 25.7111C34.2288 20.2119 34.2288 13.1266 30.6585 7.6273L31.9914 6.29447C32.3973 6.53954 32.862 6.67033 33.3362 6.67299ZM33.3362 2.67451C34.0723 2.67451 34.669 3.2712 34.669 4.00734C34.669 4.74348 34.0723 5.34017 33.3362 5.34017C32.6001 5.34017 32.0034 4.74348 32.0034 4.00734C32.0034 3.2712 32.6001 2.67451 33.3362 2.67451ZM38.0344 34.9716C38.8879 35.806 38.9035 37.1743 38.0692 38.0278C37.2348 38.8813 35.8665 38.8969 35.013 38.0625C35.0012 38.0511 34.9897 38.0395 34.9782 38.0278L29.6136 32.6631L32.6698 29.607L38.0344 34.9716ZM31.7275 28.6647L28.6713 31.7208L26.8267 29.8762C26.9206 29.8042 27.0086 29.7249 27.1012 29.651C27.1939 29.577 27.3012 29.4883 27.4005 29.405C27.5464 29.2824 27.6903 29.1585 27.8316 29.0312C27.9043 28.9645 27.9736 28.8979 28.0449 28.8313C28.3181 28.5754 28.5827 28.3108 28.8386 28.0376C28.9052 27.9663 28.9719 27.8969 29.0385 27.8243C29.1658 27.683 29.2897 27.5391 29.4124 27.3931C29.4959 27.2945 29.5779 27.1948 29.6583 27.0939C29.7316 27.002 29.8109 26.914 29.8828 26.82L31.7275 28.6647ZM29.1431 25.5692C28.9332 25.8624 28.7166 26.1496 28.488 26.4262C28.4214 26.5068 28.3501 26.5848 28.2815 26.6641C28.0775 26.9013 27.8669 27.1315 27.6497 27.3545C27.5551 27.4522 27.4588 27.5484 27.3611 27.643C27.139 27.8603 26.9089 28.0709 26.6707 28.2748C26.5914 28.3414 26.5135 28.4141 26.4328 28.4814C26.1563 28.71 25.869 28.9266 25.5758 29.1365C18.6771 34.065 9.08914 32.4679 4.1606 25.5692C-0.767951 18.6704 0.829193 9.0825 7.72791 4.15395C14.6266 -0.774599 24.2146 0.822462 29.1431 7.72126C32.9568 13.0594 32.9568 20.231 29.1431 25.5692Z" fill="#0274DC"/>
</g>
<defs>
<clipPath id="clip0">
<rect width="40" height="40" fill="white"/>
</clipPath>
</defs>
</svg>
