<svg width="40" height="40" viewBox="0 0 40 40" fill="none" xmlns="http://www.w3.org/2000/svg">
<path d="M16.5922 10.721C18.3457 10.721 19.7723 9.30502 19.7723 7.56448C19.7723 5.82393 18.3457 4.40784 16.5922 4.40784C14.8387 4.40784 13.4121 5.82393 13.4121 7.56448C13.4121 9.30502 14.8387 10.721 16.5922 10.721ZM16.5922 5.57971C17.6948 5.57971 18.5917 6.47002 18.5917 7.56448C18.5917 8.65885 17.6948 9.54916 16.5922 9.54916C15.4897 9.54916 14.5927 8.65885 14.5927 7.56448C14.5927 6.4701 15.4897 5.57971 16.5922 5.57971Z" fill="#0274DC"/>
<path d="M15.4223 34.1406C17.429 34.1406 19.0616 32.5201 19.0616 30.5282C19.0616 28.5363 17.429 26.9158 15.4223 26.9158C13.4156 26.9158 11.783 28.5363 11.783 30.5282C11.783 32.5201 13.4156 34.1406 15.4223 34.1406ZM15.4223 28.0876C16.7781 28.0876 17.881 29.1825 17.881 30.5282C17.881 31.8739 16.778 32.9687 15.4223 32.9687C14.0666 32.9687 12.9636 31.8739 12.9636 30.5282C12.9636 29.1825 14.0665 28.0876 15.4223 28.0876Z" fill="#0274DC"/>
<path d="M10.2103 10.2836C8.08275 10.2836 6.35193 12.0016 6.35193 14.1134C6.35193 16.2252 8.08275 17.9433 10.2103 17.9433C12.3378 17.9433 14.0686 16.2252 14.0686 14.1134C14.0686 12.0016 12.3378 10.2836 10.2103 10.2836ZM10.2103 16.7715C8.73373 16.7715 7.53252 15.5791 7.53252 14.1135C7.53252 12.6479 8.73381 11.4555 10.2103 11.4555C11.6867 11.4555 12.888 12.6479 12.888 14.1135C12.888 15.5791 11.6868 16.7715 10.2103 16.7715Z" fill="#0274DC"/>
<path d="M9.10525 27.2439C11.2328 27.2439 12.9636 25.5259 12.9636 23.4141C12.9636 21.3023 11.2328 19.5842 9.10525 19.5842C6.97774 19.5842 5.24692 21.3023 5.24692 23.4141C5.24692 25.5259 6.97774 27.2439 9.10525 27.2439ZM9.10525 20.756C10.5818 20.756 11.783 21.9484 11.783 23.414C11.783 24.8796 10.5817 26.072 9.10525 26.072C7.6288 26.072 6.42751 24.8796 6.42751 23.414C6.42751 21.9484 7.62872 20.756 9.10525 20.756Z" fill="#0274DC"/>
<path d="M12.9509 38.3163C13.2712 38.3748 13.579 38.1635 13.6376 37.8451C13.6963 37.5268 13.4837 37.2216 13.163 37.1635C10.9004 36.7534 8.87642 35.6393 7.30979 33.9415C2.74652 28.9963 0.714817 23.6626 1.27103 18.0884C2.52615 5.50861 15.8907 -0.752898 28.2158 1.69403C29.8809 2.02458 30.5294 3.37175 30.5786 4.42487C30.6273 5.46439 30.1146 6.84712 28.5091 7.32321C26.4348 7.93828 24.7948 8.83601 23.6345 9.99139C20.9752 12.6396 20.7448 17.1077 23.2841 20.1175C24.538 21.6036 25.34 23.4058 25.6094 25.3383C24.2726 28.3541 22.9057 31.7694 21.8478 34.9305C20.1482 36.3241 17.9977 37.1686 15.7731 37.3128C15.4478 37.3339 15.2013 37.6127 15.2225 37.9357C15.243 38.2456 15.5026 38.4835 15.8111 38.4835C15.824 38.4835 15.837 38.4831 15.8501 38.4822C17.7656 38.358 19.6322 37.7654 21.2551 36.7834C20.9118 37.9706 21.4723 39.2143 22.5995 39.7519C23.8032 40.3261 25.2605 39.8711 25.9173 38.7175C27.054 36.7212 28.2857 34.2982 29.4789 31.7106C29.6147 31.4164 29.4843 31.0686 29.188 30.9339C28.8914 30.7992 28.5412 30.9287 28.4055 31.2228C27.226 33.7809 26.0101 36.173 24.8896 38.1409C24.5372 38.7597 23.7561 39.0032 23.1109 38.6958C22.5003 38.4045 22.1995 37.7276 22.3954 37.0863C23.9192 32.0968 26.4606 26.0234 28.7886 21.3272L31.9614 22.6753C31.2216 24.6764 30.3789 26.76 29.5191 28.7355C29.3899 29.0326 29.5279 29.3774 29.8272 29.5056C30.127 29.634 30.4739 29.4968 30.6031 29.1997C32.2227 25.469 34.0303 20.8091 35.0852 16.8888C35.4602 16.7552 35.7311 16.4859 35.8748 16.1528L36.3856 14.9681C36.4951 14.7143 36.5193 14.4453 36.4715 14.1924C37.4541 13.5698 38.8294 12.4593 39.5421 10.8066C40.4225 8.76522 39.8374 5.30674 39.4103 3.42691C39.3285 3.06676 39.0754 2.76488 38.7334 2.61957C38.3914 2.47426 37.9967 2.50075 37.6777 2.69067C36.0126 3.68167 33.0877 5.64884 32.2073 7.69008C31.4949 9.34202 31.6344 11.0958 31.8587 12.2313C31.6353 12.3751 31.4598 12.5811 31.3527 12.8296L30.8418 14.0142C30.697 14.3499 30.69 14.7292 30.8503 15.0893C29.2663 17.6658 27.6938 20.7928 26.4253 23.5363C25.9798 22.0096 25.2234 20.591 24.1893 19.3652C23.1991 18.1916 22.697 16.8159 22.697 15.2765C22.697 11.9543 24.7662 9.65631 28.8471 8.44616C30.7056 7.89508 31.8481 6.29532 31.758 4.37065C31.6835 2.77879 30.6309 0.978572 28.4473 0.54506C15.4545 -2.03445 1.42395 4.66799 0.096113 17.973C-0.494572 23.8928 1.63953 29.5317 6.43923 34.7331C8.18122 36.6208 10.4329 37.86 12.9509 38.3163ZM31.7557 15.8666C32.5293 16.1952 33.1199 16.4463 33.8935 16.7749C33.5076 18.1837 32.9849 19.8209 32.3621 21.5708L29.3169 20.2769C30.1629 18.6214 30.9953 17.1159 31.7557 15.8666ZM35.3003 14.5069L34.7894 15.6916C34.7481 15.7872 34.6402 15.8175 34.5592 15.7831L32.0191 14.7038C31.9368 14.6688 31.8862 14.5699 31.927 14.4753L32.4379 13.2906C32.4777 13.1985 32.583 13.1628 32.6682 13.1992L35.2081 14.2784C35.29 14.3132 35.3404 14.414 35.3003 14.5069ZM33.2925 8.15117C33.551 7.5518 34.5528 5.9204 38.2638 3.708C39.2131 7.9007 38.7151 9.74592 38.4566 10.3454C37.8471 11.7588 36.6211 12.7184 35.7693 13.2468C35.7377 13.2303 35.7054 13.215 35.6726 13.2011L33.1326 12.1218H33.1325C33.0997 12.1079 33.0663 12.0953 33.0325 12.084C32.8299 11.1074 32.6831 9.56444 33.2925 8.15117Z" fill="#0274DC"/>
</svg>
