<svg width="237" height="44" viewBox="0 0 237 44" fill="none" xmlns="http://www.w3.org/2000/svg">
<ellipse cx="22.6696" cy="22" rx="22.6696" ry="22" fill="#007CED"/>
<path d="M72.9277 17.06L68.8877 31H66.8477L63.6077 19.78L60.2477 31L58.2277 31.02L54.3277 17.06H56.2677L59.3077 28.88L62.6677 17.06H64.7077L67.9077 28.84L70.9677 17.06H72.9277ZM75.2394 25.48C75.2394 24.36 75.4661 23.38 75.9194 22.54C76.3727 21.6867 76.9927 21.0267 77.7794 20.56C78.5794 20.0933 79.4661 19.86 80.4394 19.86C81.3994 19.86 82.2327 20.0667 82.9394 20.48C83.6461 20.8933 84.1727 21.4133 84.5194 22.04V20.04H86.3594V31H84.5194V28.96C84.1594 29.6 83.6194 30.1333 82.8994 30.56C82.1927 30.9733 81.3661 31.18 80.4194 31.18C79.4461 31.18 78.5661 30.94 77.7794 30.46C76.9927 29.98 76.3727 29.3067 75.9194 28.44C75.4661 27.5733 75.2394 26.5867 75.2394 25.48ZM84.5194 25.5C84.5194 24.6733 84.3527 23.9533 84.0194 23.34C83.6861 22.7267 83.2327 22.26 82.6594 21.94C82.0994 21.6067 81.4794 21.44 80.7994 21.44C80.1194 21.44 79.4994 21.6 78.9394 21.92C78.3794 22.24 77.9327 22.7067 77.5994 23.32C77.2661 23.9333 77.0994 24.6533 77.0994 25.48C77.0994 26.32 77.2661 27.0533 77.5994 27.68C77.9327 28.2933 78.3794 28.7667 78.9394 29.1C79.4994 29.42 80.1194 29.58 80.7994 29.58C81.4794 29.58 82.0994 29.42 82.6594 29.1C83.2327 28.7667 83.6861 28.2933 84.0194 27.68C84.3527 27.0533 84.5194 26.3267 84.5194 25.5ZM94.315 31.18C93.475 31.18 92.7217 31.04 92.055 30.76C91.3884 30.4667 90.8617 30.0667 90.475 29.56C90.0884 29.04 89.875 28.4467 89.835 27.78H91.715C91.7684 28.3267 92.0217 28.7733 92.475 29.12C92.9417 29.4667 93.5484 29.64 94.295 29.64C94.9884 29.64 95.535 29.4867 95.935 29.18C96.335 28.8733 96.535 28.4867 96.535 28.02C96.535 27.54 96.3217 27.1867 95.895 26.96C95.4684 26.72 94.8084 26.4867 93.915 26.26C93.1017 26.0467 92.435 25.8333 91.915 25.62C91.4084 25.3933 90.9684 25.0667 90.595 24.64C90.235 24.2 90.055 23.6267 90.055 22.92C90.055 22.36 90.2217 21.8467 90.555 21.38C90.8884 20.9133 91.3617 20.5467 91.975 20.28C92.5884 20 93.2884 19.86 94.075 19.86C95.2884 19.86 96.2684 20.1667 97.015 20.78C97.7617 21.3933 98.1617 22.2333 98.215 23.3H96.395C96.355 22.7267 96.1217 22.2667 95.695 21.92C95.2817 21.5733 94.7217 21.4 94.015 21.4C93.3617 21.4 92.8417 21.54 92.455 21.82C92.0684 22.1 91.875 22.4667 91.875 22.92C91.875 23.28 91.9884 23.58 92.215 23.82C92.455 24.0467 92.7484 24.2333 93.095 24.38C93.455 24.5133 93.9484 24.6667 94.575 24.84C95.3617 25.0533 96.0017 25.2667 96.495 25.48C96.9884 25.68 97.4084 25.9867 97.755 26.4C98.115 26.8133 98.3017 27.3533 98.315 28.02C98.315 28.62 98.1484 29.16 97.815 29.64C97.4817 30.12 97.0084 30.5 96.395 30.78C95.795 31.0467 95.1017 31.18 94.315 31.18ZM105.764 31.18C104.924 31.18 104.171 31.04 103.504 30.76C102.838 30.4667 102.311 30.0667 101.924 29.56C101.538 29.04 101.324 28.4467 101.284 27.78H103.164C103.218 28.3267 103.471 28.7733 103.924 29.12C104.391 29.4667 104.998 29.64 105.744 29.64C106.438 29.64 106.984 29.4867 107.384 29.18C107.784 28.8733 107.984 28.4867 107.984 28.02C107.984 27.54 107.771 27.1867 107.344 26.96C106.918 26.72 106.258 26.4867 105.364 26.26C104.551 26.0467 103.884 25.8333 103.364 25.62C102.858 25.3933 102.418 25.0667 102.044 24.64C101.684 24.2 101.504 23.6267 101.504 22.92C101.504 22.36 101.671 21.8467 102.004 21.38C102.338 20.9133 102.811 20.5467 103.424 20.28C104.038 20 104.738 19.86 105.524 19.86C106.738 19.86 107.718 20.1667 108.464 20.78C109.211 21.3933 109.611 22.2333 109.664 23.3H107.844C107.804 22.7267 107.571 22.2667 107.144 21.92C106.731 21.5733 106.171 21.4 105.464 21.4C104.811 21.4 104.291 21.54 103.904 21.82C103.518 22.1 103.324 22.4667 103.324 22.92C103.324 23.28 103.438 23.58 103.664 23.82C103.904 24.0467 104.198 24.2333 104.544 24.38C104.904 24.5133 105.398 24.6667 106.024 24.84C106.811 25.0533 107.451 25.2667 107.944 25.48C108.438 25.68 108.858 25.9867 109.204 26.4C109.564 26.8133 109.751 27.3533 109.764 28.02C109.764 28.62 109.598 29.16 109.264 29.64C108.931 30.12 108.458 30.5 107.844 30.78C107.244 31.0467 106.551 31.18 105.764 31.18ZM114.273 18.26C113.927 18.26 113.633 18.14 113.393 17.9C113.153 17.66 113.033 17.3667 113.033 17.02C113.033 16.6733 113.153 16.38 113.393 16.14C113.633 15.9 113.927 15.78 114.273 15.78C114.607 15.78 114.887 15.9 115.113 16.14C115.353 16.38 115.473 16.6733 115.473 17.02C115.473 17.3667 115.353 17.66 115.113 17.9C114.887 18.14 114.607 18.26 114.273 18.26ZM115.153 20.04V31H113.333V20.04H115.153ZM132.435 19.84C133.289 19.84 134.049 20.02 134.715 20.38C135.382 20.7267 135.909 21.2533 136.295 21.96C136.682 22.6667 136.875 23.5267 136.875 24.54V31H135.075V24.8C135.075 23.7067 134.802 22.8733 134.255 22.3C133.722 21.7133 132.995 21.42 132.075 21.42C131.129 21.42 130.375 21.7267 129.815 22.34C129.255 22.94 128.975 23.8133 128.975 24.96V31H127.175V24.8C127.175 23.7067 126.902 22.8733 126.355 22.3C125.822 21.7133 125.095 21.42 124.175 21.42C123.229 21.42 122.475 21.7267 121.915 22.34C121.355 22.94 121.075 23.8133 121.075 24.96V31H119.255V20.04H121.075V21.62C121.435 21.0467 121.915 20.6067 122.515 20.3C123.129 19.9933 123.802 19.84 124.535 19.84C125.455 19.84 126.269 20.0467 126.975 20.46C127.682 20.8733 128.209 21.48 128.555 22.28C128.862 21.5067 129.369 20.9067 130.075 20.48C130.782 20.0533 131.569 19.84 132.435 19.84ZM158.153 31H156.333L149.013 19.9V31H147.193V17.04H149.013L156.333 28.12V17.04H158.153V31ZM161.575 25.48C161.575 24.36 161.802 23.38 162.255 22.54C162.709 21.6867 163.329 21.0267 164.115 20.56C164.915 20.0933 165.802 19.86 166.775 19.86C167.735 19.86 168.569 20.0667 169.275 20.48C169.982 20.8933 170.509 21.4133 170.855 22.04V20.04H172.695V31H170.855V28.96C170.495 29.6 169.955 30.1333 169.235 30.56C168.529 30.9733 167.702 31.18 166.755 31.18C165.782 31.18 164.902 30.94 164.115 30.46C163.329 29.98 162.709 29.3067 162.255 28.44C161.802 27.5733 161.575 26.5867 161.575 25.48ZM170.855 25.5C170.855 24.6733 170.689 23.9533 170.355 23.34C170.022 22.7267 169.569 22.26 168.995 21.94C168.435 21.6067 167.815 21.44 167.135 21.44C166.455 21.44 165.835 21.6 165.275 21.92C164.715 22.24 164.269 22.7067 163.935 23.32C163.602 23.9333 163.435 24.6533 163.435 25.48C163.435 26.32 163.602 27.0533 163.935 27.68C164.269 28.2933 164.715 28.7667 165.275 29.1C165.835 29.42 166.455 29.58 167.135 29.58C167.815 29.58 168.435 29.42 168.995 29.1C169.569 28.7667 170.022 28.2933 170.355 27.68C170.689 27.0533 170.855 26.3267 170.855 25.5ZM180.651 31.18C179.811 31.18 179.058 31.04 178.391 30.76C177.724 30.4667 177.198 30.0667 176.811 29.56C176.424 29.04 176.211 28.4467 176.171 27.78H178.051C178.104 28.3267 178.358 28.7733 178.811 29.12C179.278 29.4667 179.884 29.64 180.631 29.64C181.324 29.64 181.871 29.4867 182.271 29.18C182.671 28.8733 182.871 28.4867 182.871 28.02C182.871 27.54 182.658 27.1867 182.231 26.96C181.804 26.72 181.144 26.4867 180.251 26.26C179.438 26.0467 178.771 25.8333 178.251 25.62C177.744 25.3933 177.304 25.0667 176.931 24.64C176.571 24.2 176.391 23.6267 176.391 22.92C176.391 22.36 176.558 21.8467 176.891 21.38C177.224 20.9133 177.698 20.5467 178.311 20.28C178.924 20 179.624 19.86 180.411 19.86C181.624 19.86 182.604 20.1667 183.351 20.78C184.098 21.3933 184.498 22.2333 184.551 23.3H182.731C182.691 22.7267 182.458 22.2667 182.031 21.92C181.618 21.5733 181.058 21.4 180.351 21.4C179.698 21.4 179.178 21.54 178.791 21.82C178.404 22.1 178.211 22.4667 178.211 22.92C178.211 23.28 178.324 23.58 178.551 23.82C178.791 24.0467 179.084 24.2333 179.431 24.38C179.791 24.5133 180.284 24.6667 180.911 24.84C181.698 25.0533 182.338 25.2667 182.831 25.48C183.324 25.68 183.744 25.9867 184.091 26.4C184.451 26.8133 184.638 27.3533 184.651 28.02C184.651 28.62 184.484 29.16 184.151 29.64C183.818 30.12 183.344 30.5 182.731 30.78C182.131 31.0467 181.438 31.18 180.651 31.18ZM192.1 31.18C191.26 31.18 190.507 31.04 189.84 30.76C189.174 30.4667 188.647 30.0667 188.26 29.56C187.874 29.04 187.66 28.4467 187.62 27.78H189.5C189.554 28.3267 189.807 28.7733 190.26 29.12C190.727 29.4667 191.334 29.64 192.08 29.64C192.774 29.64 193.32 29.4867 193.72 29.18C194.12 28.8733 194.32 28.4867 194.32 28.02C194.32 27.54 194.107 27.1867 193.68 26.96C193.254 26.72 192.594 26.4867 191.7 26.26C190.887 26.0467 190.22 25.8333 189.7 25.62C189.194 25.3933 188.754 25.0667 188.38 24.64C188.02 24.2 187.84 23.6267 187.84 22.92C187.84 22.36 188.007 21.8467 188.34 21.38C188.674 20.9133 189.147 20.5467 189.76 20.28C190.374 20 191.074 19.86 191.86 19.86C193.074 19.86 194.054 20.1667 194.8 20.78C195.547 21.3933 195.947 22.2333 196 23.3H194.18C194.14 22.7267 193.907 22.2667 193.48 21.92C193.067 21.5733 192.507 21.4 191.8 21.4C191.147 21.4 190.627 21.54 190.24 21.82C189.854 22.1 189.66 22.4667 189.66 22.92C189.66 23.28 189.774 23.58 190 23.82C190.24 24.0467 190.534 24.2333 190.88 24.38C191.24 24.5133 191.734 24.6667 192.36 24.84C193.147 25.0533 193.787 25.2667 194.28 25.48C194.774 25.68 195.194 25.9867 195.54 26.4C195.9 26.8133 196.087 27.3533 196.1 28.02C196.1 28.62 195.934 29.16 195.6 29.64C195.267 30.12 194.794 30.5 194.18 30.78C193.58 31.0467 192.887 31.18 192.1 31.18ZM204.449 31.18C203.423 31.18 202.489 30.9467 201.649 30.48C200.823 30.0133 200.169 29.3533 199.689 28.5C199.223 27.6333 198.989 26.6333 198.989 25.5C198.989 24.38 199.229 23.3933 199.709 22.54C200.203 21.6733 200.869 21.0133 201.709 20.56C202.549 20.0933 203.489 19.86 204.529 19.86C205.569 19.86 206.509 20.0933 207.349 20.56C208.189 21.0133 208.849 21.6667 209.329 22.52C209.823 23.3733 210.069 24.3667 210.069 25.5C210.069 26.6333 209.816 27.6333 209.309 28.5C208.816 29.3533 208.143 30.0133 207.289 30.48C206.436 30.9467 205.489 31.18 204.449 31.18ZM204.449 29.58C205.103 29.58 205.716 29.4267 206.289 29.12C206.863 28.8133 207.323 28.3533 207.669 27.74C208.029 27.1267 208.209 26.38 208.209 25.5C208.209 24.62 208.036 23.8733 207.689 23.26C207.343 22.6467 206.889 22.1933 206.329 21.9C205.769 21.5933 205.163 21.44 204.509 21.44C203.843 21.44 203.229 21.5933 202.669 21.9C202.123 22.1933 201.683 22.6467 201.349 23.26C201.016 23.8733 200.849 24.62 200.849 25.5C200.849 26.3933 201.009 27.1467 201.329 27.76C201.663 28.3733 202.103 28.8333 202.649 29.14C203.196 29.4333 203.796 29.58 204.449 29.58ZM223.182 20.04V31H221.362V29.38C221.016 29.94 220.529 30.38 219.902 30.7C219.289 31.0067 218.609 31.16 217.862 31.16C217.009 31.16 216.242 30.9867 215.562 30.64C214.882 30.28 214.342 29.7467 213.942 29.04C213.556 28.3333 213.362 27.4733 213.362 26.46V20.04H215.162V26.22C215.162 27.3 215.436 28.1333 215.982 28.72C216.529 29.2933 217.276 29.58 218.222 29.58C219.196 29.58 219.962 29.28 220.522 28.68C221.082 28.08 221.362 27.2067 221.362 26.06V20.04H223.182ZM229.075 21.82C229.395 21.1933 229.849 20.7067 230.435 20.36C231.035 20.0133 231.762 19.84 232.615 19.84V21.72H232.135C230.095 21.72 229.075 22.8267 229.075 25.04V31H227.255V20.04H229.075V21.82Z" fill="#363636"/>
<path d="M36.7139 13.54L30.9459 33H27.3339L23.2459 18.272L18.9059 33L15.3219 33.028L9.80593 13.54H13.1939L17.2259 29.388L21.5939 13.54H25.1779L29.2379 29.304L33.2979 13.54H36.7139Z" fill="#EEEEEE"/>
</svg>
