<svg width="90" height="90" viewBox="0 0 90 90" fill="none" xmlns="http://www.w3.org/2000/svg">
<path d="M45 0.555557C36.2097 0.555557 27.6169 3.16218 20.308 8.0458C12.9992 12.9294 7.3026 19.8707 3.93871 27.9918C0.574814 36.113 -0.305334 45.0493 1.40956 53.6707C3.12446 62.2921 7.35739 70.2113 13.5731 76.427C19.7887 82.6426 27.708 86.8756 36.3293 88.5905C44.9507 90.3054 53.887 89.4252 62.0082 86.0613C70.1293 82.6974 77.0706 77.0009 81.9542 69.692C86.8379 62.3832 89.4445 53.7903 89.4445 45C89.4445 33.2126 84.7619 21.908 76.427 13.573C68.092 5.23808 56.7874 0.555557 45 0.555557V0.555557ZM45 83.8889C37.3085 83.8889 29.7898 81.6081 23.3945 77.3349C16.9993 73.0618 12.0148 66.9881 9.07137 59.8821C6.12797 52.7761 5.35784 44.9569 6.85837 37.4132C8.35891 29.8695 12.0627 22.9401 17.5014 17.5014C22.9401 12.0627 29.8695 8.35889 37.4132 6.85835C44.9569 5.35782 52.7761 6.12795 59.8822 9.07135C66.9882 12.0148 73.0618 16.9992 77.335 23.3945C81.6081 29.7897 83.8889 37.3085 83.8889 45C83.8889 55.314 79.7917 65.2055 72.4986 72.4986C65.2055 79.7917 55.314 83.8889 45 83.8889Z" fill="#0274DC"/>
<path d="M72.7778 28.6111C72.2573 28.0937 71.5533 27.8033 70.8194 27.8033C70.0856 27.8033 69.3815 28.0937 68.8611 28.6111L38.0278 59.3055L21.3611 42.6389C20.8528 42.09 20.1472 41.7656 19.3997 41.7369C18.6521 41.7083 17.9238 41.9778 17.375 42.4861C16.8261 42.9944 16.5017 43.7 16.473 44.4475C16.4444 45.1951 16.7139 45.9234 17.2222 46.4722L38.0278 67.2222L72.7778 32.5555C73.0381 32.2973 73.2448 31.9901 73.3858 31.6516C73.5268 31.3131 73.5994 30.95 73.5994 30.5833C73.5994 30.2166 73.5268 29.8536 73.3858 29.5151C73.2448 29.1766 73.0381 28.8693 72.7778 28.6111Z" fill="#5CB85C"/>
</svg>
